#define mycur_width 32
#define mycur_height 32
#define mycur_x_hot 15
#define mycur_y_hot 31
static unsigned char mycur_bits[] = {
   0x00, 0x00, 0x00, 0x00, 0x00, 0x00, 0x00, 0x00, 0x00, 0x00, 0x00, 0x00,
   0x00, 0x00, 0x00, 0x00, 0x00, 0x00, 0x00, 0x00, 0x00, 0x02, 0x00, 0x00,
   0x00, 0x06, 0x00, 0x00, 0x00, 0x0a, 0x00, 0x00, 0x00, 0x12, 0x00, 0x00,
   0x00, 0x22, 0x00, 0x00, 0x00, 0x42, 0x00, 0x00, 0x00, 0x82, 0x00, 0x00,
   0x00, 0x02, 0x01, 0x00, 0x00, 0x02, 0x02, 0x00, 0x00, 0x02, 0x04, 0x00,
   0x00, 0x02, 0x08, 0x00, 0x00, 0x02, 0x10, 0x00, 0x00, 0x02, 0x20, 0x00,
   0x00, 0x02, 0x40, 0x00, 0x00, 0x02, 0x70, 0x00, 0x00, 0x02, 0x0c, 0x00,
   0x00, 0x42, 0x04, 0x00, 0x00, 0xe2, 0x08, 0x00, 0x00, 0x92, 0x08, 0x00,
   0x00, 0x0e, 0x11, 0x00, 0x00, 0x00, 0x11, 0x00, 0x00, 0x00, 0x1a, 0x00,
   0x00, 0x00, 0x0e, 0x00, 0x00, 0x00, 0x00, 0x00, 0x00, 0x00, 0x00, 0x00,
   0x00, 0x00, 0x00, 0x00, 0x00, 0x00, 0x00, 0x00 };
